<?xml version="1.0" encoding="UTF-8"?>
<!-- Generator: Adobe Illustrator 19.2.1, SVG Export Plug-In . SVG Version: 6.00 Build 0)  -->
<svg version="1.1" id="Layer_1" xmlns="http://www.w3.org/2000/svg" xmlns:xlink="http://www.w3.org/1999/xlink" x="0px" y="0px" viewBox="0 0 807.5 800.8" style="enable-background:new 0 0 807.5 800.8;" xml:space="preserve">
<style type="text/css">
	.st0{fill:#222222;}
	.st1{fill:#28333E;}
	.st2{fill:#FFFFFF;}
	.st3{fill:#DFD726;}
	.st4{fill:#071C2C;}
	.st5{fill:#1F73FF;}
	.st6{font-family:'Lato-Black';}
	.st7{font-size:67px;}
	.st8{fill:#FFD740;}
	.st9{opacity:0.24;}
	.st10{fill:#F4F4F4;}
	.st11{fill:#969696;}
</style>
<rect class="st0" width="807.5" height="750.1"/>
<g id="Background">
</g>
<rect y="706.8" class="st1" width="807.5" height="94"/>
<g>
	<g>
		<path class="st2" d="M264.6,764.7h-3.5l13.6-30.1h3l13.6,30.1h-3.5l-3.3-7.3h-16.7L264.6,764.7z M269.1,754.6h14.2l-7.1-16    L269.1,754.6z"/>
		<path class="st2" d="M315,764.3c-5.4,1-7.4,1-10.6,1c-6,0-10.1-4.1-10.1-10.9c0-6.4,3.8-10.7,10.5-10.7c2.4,0,4.8,0.2,7.2,0.9    v-11.2h3V764.3z M297.3,754.4c0,5,2.8,8.4,7.7,8.4c1.9,0,3.5,0,7-0.6v-14.9c-2.6-0.7-4.8-0.9-6.9-0.9    C299.8,746.3,297.3,749.6,297.3,754.4z"/>
		<path class="st2" d="M341.8,764.3c-5.4,1-7.4,1-10.6,1c-6,0-10.1-4.1-10.1-10.9c0-6.4,3.8-10.7,10.5-10.7c2.4,0,4.8,0.2,7.2,0.9    v-11.2h3V764.3z M324,754.4c0,5,2.8,8.4,7.7,8.4c1.9,0,3.5,0,7-0.6v-14.9c-2.6-0.7-4.8-0.9-6.9-0.9    C326.6,746.3,324,749.6,324,754.4z"/>
		<path class="st2" d="M375.1,764.7l-8.4-24.7l-8.4,24.7h-3L345,734.8h3.3l8.5,25.1l8.4-25.1h2.7l8.5,25.1l8.4-25.1h3.3l-10.3,29.9    H375.1z"/>
		<path class="st2" d="M409,753.4c0,1,0,1.4-0.1,2.3H392c0.5,4.2,3.4,7,7.9,7c2.6,0,4.7-0.4,7.5-1.1l0.5,2.5c-2.7,0.8-5,1.4-8.1,1.4    c-7,0-11-4.5-11-10.9c0-6.5,4.4-10.8,10.6-10.8C405,743.7,409,747.4,409,753.4z M391.8,753.3h14.4c-0.1-4.4-2.9-7.1-7-7.1    C395,746.2,392.3,749,391.8,753.3z"/>
		<path class="st2" d="M418,744.6c2.5-0.7,4.8-0.9,7.2-0.9c6.7,0,10.5,4.3,10.5,10.7c0,6.7-4.1,10.9-10.1,10.9c-3.2,0-5.2,0-10.6-1    v-30.8h3V744.6z M418.1,747.2v14.9c3.5,0.6,5.1,0.6,7,0.6c4.9,0,7.7-3.3,7.7-8.4c0-4.8-2.6-8.1-7.8-8.1    C423,746.3,420.8,746.5,418.1,747.2z"/>
	</g>
	<g>
		<path class="st2" d="M211.1,768.8l5.8-9.5h7.8c0.9,0,1.9,0,2.9,0s1.9,0,2.6,0.1c-0.4-0.7-0.9-1.5-1.5-2.5s-1.1-2-1.7-2.8l-5.6-9.8    l-14.7,24.6h-11.4l20-33.5c0.7-1.1,1.5-2,2.5-2.9c1-0.8,2.3-1.3,3.8-1.3s2.7,0.4,3.7,1.2s1.8,1.8,2.5,3l19.5,33.5L211.1,768.8    L211.1,768.8z"/>
	</g>
	<g>
		<g>
			<path class="st3" d="M463.3,738.7c-3.4-1-7.2-1.7-10.1-1.7c-4.3,0-7.2,2-7.2,5.5c0,3,2.3,4.1,7.6,5.2c6.6,1.4,11.4,2.9,11.4,8.8     c0,5.7-4.6,8.8-11.1,8.8c-3.9,0-8.5-0.9-12.5-2.5l0.8-2.9c4,1.6,8.3,2.5,11.7,2.5c4.6,0,7.8-2,7.8-5.7c0-4.6-5.1-5.3-10-6.3     c-6.6-1.4-9.2-3.3-9.2-7.7c0-5.2,4.2-8.4,10.6-8.4c3.8,0,8,0.8,10.8,1.8L463.3,738.7z"/>
			<path class="st3" d="M492.1,754.5c0,6.6-4.6,11-11.1,11s-11.1-4.4-11.1-11c0-6.5,4.6-10.9,11.1-10.9S492.1,747.9,492.1,754.5z      M489.1,754.5c0-4.9-3.3-8.1-8.1-8.1c-4.7,0-8.1,3.2-8.1,8.1c0,4.9,3.3,8.2,8.1,8.2C485.8,762.7,489.1,759.4,489.1,754.5z"/>
			<path class="st3" d="M501.5,764.7h-3v-31.2h3V764.7z"/>
			<path class="st3" d="M528.8,764.3c-3,0.7-7.5,1.1-11.1,1.1c-5.1,0-8.3-2.6-8.3-8.3v-12.7h3v12.1c0,4.1,2.1,6.3,5.9,6.3     c2.2,0,4.8-0.2,7.6-0.6v-17.8h3v19.9H528.8z"/>
			<path class="st3" d="M549.8,764.8c-1.6,0.4-2.8,0.6-4.5,0.6c-4.7,0-6.9-2.4-6.9-7.7v-10.5h-4.7v-2.7h4.7V736h3v8.5h7.3v2.7h-7.4     v10.3c0,3.7,1.2,5.3,4.4,5.3c1.1,0,2.3-0.1,3.7-0.4L549.8,764.8z"/>
			<path class="st3" d="M554.7,737c0-1.3,1-2.2,2.2-2.2s2.2,0.9,2.2,2.2c0,1.2-1,2.2-2.2,2.2S554.7,738.3,554.7,737z M558.3,764.7     h-3v-20.3h3V764.7z"/>
			<path class="st3" d="M586.8,754.5c0,6.6-4.6,11-11.1,11s-11.1-4.4-11.1-11c0-6.5,4.6-10.9,11.1-10.9S586.8,747.9,586.8,754.5z      M583.7,754.5c0-4.9-3.3-8.1-8.1-8.1c-4.7,0-8.1,3.2-8.1,8.1c0,4.9,3.3,8.2,8.1,8.2S583.7,759.4,583.7,754.5z"/>
			<path class="st3" d="M612.2,752v12.7h-3v-12c0-3.9-2.2-6.2-5.9-6.2c-2.2,0-4.8,0.1-7.6,0.6v17.6h-3v-19.9c3-0.7,7.5-1.1,11.1-1.1     C609,743.7,612.2,746.8,612.2,752z"/>
		</g>
	</g>
</g>
<path class="st4" d="M403.8,487.8"/>
<path class="st4" d="M403.8,502.2"/>
<path class="st4" d="M403.8,588.1"/>
<path class="st4" d="M403.8,589"/>
<path class="st4" d="M403.8,498.7"/>
<text transform="matrix(1 0 0 1 80.4124 620)"><tspan x="0" y="0" class="st5 st6 st7">A</tspan><tspan x="48" y="0" class="st8 st6 st7">W</tspan><tspan x="118.5" y="0" class="st5 st6 st7">S </tspan><tspan x="165" y="0" class="st2 st6 st7">Cookie Popup</tspan></text>
<g>
	<g>
		<g class="st9">
			<path d="M646.7,520.2H160.8c-4.3,0-7.8-3.5-7.8-7.8V109.2c0-4.3,3.5-7.8,7.8-7.8h485.9c4.3,0,7.8,3.5,7.8,7.8v403.2     C654.5,516.7,651,520.2,646.7,520.2z"/>
		</g>
		<g>
			<path class="st10" d="M646.7,509.4H160.8c-4.3,0-7.8-3.5-7.8-7.8V98.4c0-4.3,3.5-7.8,7.8-7.8h485.9c4.3,0,7.8,3.5,7.8,7.8v403.2     C654.5,505.9,651,509.4,646.7,509.4z"/>
		</g>
	</g>
	<path class="st8" d="M419.6,509.4H160.8c-4.3,0-7.8-3.5-7.8-7.8v-91.2h266.5V509.4z"/>
	<path class="st5" d="M403.8,509.4h243c4.3,0,7.8-3.5,7.8-7.8v-91.2H403.8V509.4z"/>
	<path class="st11" d="M509.3,265.4H291c-1.1,0-2-0.9-2-2v-32.1c0-1.1,0.9-2,2-2h218.2c1.1,0,2,0.9,2,2v32.1   C511.3,264.5,510.4,265.4,509.3,265.4z"/>
	<path class="st11" d="M343.9,472.6H210.2c-1.1,0-2-0.9-2-2v-18.4c0-1.1,0.9-2,2-2h133.8c1.1,0,2,0.9,2,2v18.4   C345.9,471.7,345,472.6,343.9,472.6z"/>
	<path class="st11" d="M596,472.6H462.2c-1.1,0-2-0.9-2-2v-18.4c0-1.1,0.9-2,2-2H596c1.1,0,2,0.9,2,2v18.4   C598,471.7,597.1,472.6,596,472.6z"/>
	<path class="st11" d="M613.1,119L593,142.9c-0.7,0.8-2,1-2.8,0.2l-5.2-4.4c-0.8-0.7-1-2-0.2-2.8l20.1-23.9c0.7-0.8,2-1,2.8-0.2   l5.2,4.4C613.7,116.9,613.8,118.1,613.1,119z"/>
	<path class="st11" d="M604.8,142.9L584.7,119c-0.7-0.8-0.6-2.1,0.2-2.8l5.2-4.4c0.8-0.7,2.1-0.6,2.8,0.2l20.1,23.9   c0.7,0.8,0.6,2.1-0.2,2.8l-5.2,4.4C606.8,143.8,605.5,143.7,604.8,142.9z"/>
</g>
</svg>