<svg width="14" height="11" viewBox="0 0 14 11" fill="none" xmlns="http://www.w3.org/2000/svg">
<path d="M14 3.24523V3.84239C13.9869 3.91846 13.9723 3.99419 13.961 4.0706C13.8516 4.7995 13.5093 5.43193 13.0463 6.01146C12.4557 6.75038 11.7416 7.37417 10.9906 7.95819C9.89693 8.80777 8.79051 9.63763 7.68956 10.4761C7.45989 10.6508 7.23095 10.8271 7.00383 11C5.87881 10.1483 4.76145 9.3088 3.64992 8.4606C2.80525 7.81538 1.97297 7.15356 1.26209 6.37176C0.77541 5.83822 0.364192 5.25974 0.159312 4.57371C0.0864015 4.33478 0.0521313 4.08651 0 3.84239V3.24523C0.0182277 3.13908 0.0364555 3.03292 0.0546832 2.92711C0.398823 0.946151 2.28758 -0.249205 4.29336 0.0440151C5.23063 0.182326 5.96448 0.653277 6.5536 1.34034C6.71328 1.52637 6.85108 1.72899 7.00529 1.93231C7.07382 1.83307 7.13725 1.73487 7.20688 1.64082C8.06468 0.485228 9.20209 -0.127145 10.7259 0.0256889C12.2571 0.179214 13.4729 1.17229 13.864 2.58445C13.9271 2.80194 13.9559 3.02532 14 3.24523Z" fill="#D93802"/>
</svg>