<?xml version="1.0" encoding="utf-8"?>
<!-- Generator: Adobe Illustrator 19.2.1, SVG Export Plug-In . SVG Version: 6.00 Build 0)  -->
<svg version="1.1" xmlns="http://www.w3.org/2000/svg" xmlns:xlink="http://www.w3.org/1999/xlink" x="0px" y="0px"
	 viewBox="0 0 800 800" style="enable-background:new 0 0 800 800;" xml:space="preserve">
<style type="text/css">
	.st0{fill:#232323;}
	.st1{fill:#FCFCFC;}
	.st2{fill:#B6B63E;}
	.st3{fill:#12367F;}
	.st4{fill:#28333E;stroke:#1D1D1B;stroke-miterlimit:10;}
	.st5{fill:#FFFFFF;}
	.st6{fill:#DFD726;}
</style>
<g id="Background">
</g>
<g id="Objects">
	<g>
		<path class="st0" d="M395.9,137.2c0.8,1.6,2.3,3.3,2.4,5c0.3,6.2,0.4,12.4-0.1,18.6c-0.1,1.7-2.3,3.2-3.6,4.9
			c-1.2-1.6-3.5-3.2-3.5-4.9c0.1-7.8,0.8-15.7,1.2-23.5C393.6,137.2,394.8,137.2,395.9,137.2z"/>
		<path class="st0" d="M233.3,298.7c6.6-0.1,13.2-0.4,19.8,0c1.7,0.1,3.2,2.3,4.8,3.5c-1.6,1.2-3.2,3.5-4.8,3.5
			c-6.6,0.4-13.2,0-19.8,0C233.3,303.4,233.3,301,233.3,298.7z"/>
		<path class="st0" d="M334.6,194.9c18.9,32.6,37.8,65.2,56.7,97.9c0.7-0.1,1.3-0.2,2-0.3c0-25.5,0-51,0-76.4
			c0.9-0.1,1.7-0.1,2.6-0.2c0.4,2,1.1,4,1.1,6c0.1,21.5,0.1,42.9,0,64.4c0,3.7,0.3,6.4,4.1,8.6c4.4,2.5,5.2,8.3,2.3,12.3
			c-3,4.2-7,5.4-11.8,3.4c-4.6-1.9-7.2-7-5-11.5c1.7-3.4,0.7-5.7-0.9-8.6c-17.1-29.3-34-58.7-51-88.1c-1.1-1.9-1.7-4.1-2.6-6.2
			C332.9,195.7,333.7,195.3,334.6,194.9z"/>
		<path class="st0" d="M254.8,217.5c1.9,0.9,3.4,1.5,4.7,2.3c5.1,2.8,10.3,5.5,15.2,8.6c1.3,0.9,1.6,3.3,2.3,5
			c-1.8,0.5-4.1,2.1-5.4,1.5c-6.3-3-12.4-6.5-18.3-10.2c-1-0.6-1.7-2.9-1.5-4.3C252,219.3,253.8,218.5,254.8,217.5z"/>
		<path class="st0" d="M254.5,386.6c-0.7-0.6-2.2-1.3-2.5-2.3c-0.4-1.2-0.2-3.5,0.7-4.1c6.4-4.1,12.8-8,19.5-11.7
			c0.9-0.5,3.4,0.5,4.3,1.5c0.7,0.8,0.4,3.6-0.3,4.1c-6.5,4.2-13.2,8.1-19.9,12.1C255.9,386.4,255.4,386.4,254.5,386.6z"/>
		<path class="st0" d="M515.1,236.5c-0.7-0.8-2.3-1.7-2.6-2.9c-0.3-1.2,0.4-3.3,1.4-3.9c6-3.9,12.2-7.6,18.5-11.1
			c1.1-0.6,3.7-0.1,4.5,0.9c0.8,1,0.7,4-0.1,4.5c-6.5,4.3-13.2,8.1-19.9,12.1C516.7,236.3,516.2,236.3,515.1,236.5z"/>
		<path class="st0" d="M479.7,411.5c-1.2,1.4-2,3.1-3.1,3.3c-1.4,0.3-3.8-0.3-4.4-1.3c-3.8-6.1-7.3-12.4-10.6-18.9
			c-0.6-1.1,0.2-3.5,1.1-4.5c0.7-0.7,3.6-0.7,4.1-0.1C471.2,397,475.3,404.1,479.7,411.5z"/>
		<path class="st0" d="M464,186.1c-0.8-2.7-2.4-5.2-1.7-6.7c2.9-6.4,6.3-12.5,9.9-18.5c0.6-1.1,3.4-1.6,4.8-1.1
			c0.9,0.3,2,3.2,1.5,4.2c-3.2,6.6-6.9,13.1-10.5,19.5C467.6,184.3,466.3,184.7,464,186.1z"/>
		<path class="st0" d="M312.7,416.3c-0.7-2.6-2.3-5.1-1.6-6.4c3.4-6.3,7.2-12.4,11.3-18.3c0.7-1,3.5-1.3,4.9-0.8
			c0.9,0.3,1.8,3.3,1.2,4.3c-3.6,6.4-7.6,12.6-11.6,18.8C316.4,414.7,315.1,415,312.7,416.3z"/>
		<path class="st0" d="M534.1,386.6c-1.1-0.5-2.2-0.8-3.2-1.4c-5.4-3.1-10.9-6-16.1-9.4c-1.2-0.8-1.2-3.5-1.7-5.2
			c1.7-0.4,3.9-1.7,5-1.1c6.1,3.1,12,6.5,17.7,10.1c1.1,0.7,1.7,2.9,1.7,4.4c0,1.5-0.9,3-1.5,4.4
			C535.4,387.7,534.8,387.2,534.1,386.6z"/>
		<path class="st0" d="M314.6,158.6c1.1,1,2.4,1.8,3.1,3c3.2,5.3,6.4,10.7,9.1,16.3c0.7,1.5-0.6,3.9-0.9,6c-1.8-0.7-4.4-0.8-5.2-2.1
			c-3.5-5.4-6.7-11-9.4-16.8c-0.7-1.6,0.8-4.1,1.2-6.3C313.2,158.6,313.9,158.6,314.6,158.6z"/>
		<path class="st0" d="M545.3,305.9c-3.5,0-7.1,0.3-10.5-0.2c-1.4-0.2-2.5-2.3-3.8-3.5c1.3-1.2,2.5-3.4,3.8-3.5c7-0.3,14-0.3,21,0
			c1.3,0.1,2.5,2.3,3.8,3.5c-1.3,1.2-2.4,3.3-3.8,3.5C552.3,306.2,548.8,305.9,545.3,305.9z"/>
		<path class="st1" d="M391.1,422.4c0-3.3-0.3-6.7,0.2-9.9c0.2-1.5,2.1-2.7,3.2-4.1c1.3,1.4,3.7,2.7,3.8,4.1
			c0.4,6.8,0.4,13.6,0,20.4c-0.1,1.4-2.5,2.7-3.8,4c-1.1-1.4-2.9-2.6-3.1-4.1C390.7,429.4,391.1,425.9,391.1,422.4z"/>
		<path class="st0" d="M268,310.1c5.1-1,9.9,0.2,10.1-5.5c-0.3-0.2-0.5-0.4-0.6-0.4c-4.7,1.1-8.9,0.6-9.6-5.2
			c-0.5-3.9,1.3-6.9,5.6-7.4c4.6-0.5,7.4,2.7,7.7,8.8C281.8,309.3,277.5,313.2,268,310.1z M279.8,298.5c-2.4-2.2-3.8-4.4-5.1-4.4
			c-1.4,0-3.9,2.4-3.8,3.5c0.1,1.7,1.9,3.9,3.5,4.6C275.2,302.6,277.3,300.3,279.8,298.5z"/>
		<path class="st0" d="M401.6,412.1c-4,0.1-8.3-0.6-8.8,5c7.6-0.3,10.8,2,10.2,7.3c-0.5,4.5-4.8,7.1-8.9,5.3
			c-3.9-1.7-5.8-9.1-3.8-14.5c1.7-4.6,5.7-6.3,10.8-4.4C401.2,410.8,401.2,411.1,401.6,412.1z M395.9,428.7c0.7,0,1.3-0.1,2-0.1
			c0.8-1.9,2.4-3.9,2.1-5.7c-0.2-1.4-2.6-2.5-4-3.8c-1.1,1.6-3,3.2-3,4.8C393,425.6,394.8,427.2,395.9,428.7z"/>
		<path class="st0" d="M399,178.7c3.6-2.4,7.5-2.9,10.7,0.6c3.1,3.4,0.7,6.5-1.7,9.2c-1.5,1.7-3.1,3.4-5.3,5.7
			c3.1,0.5,5.6,0.9,8,1.2c0,0.3,0,0.7-0.1,1c-3.9,0-7.8,0-12.9,0c2.4-2.7,4.3-4.5,5.8-6.7c1.7-2.6,3-5.5,4.4-8.2
			C405.1,180.6,402.3,179.7,399,178.7z"/>
		<path class="st0" d="M508.6,310.2c3.5-1.5,6.6-2.8,9.7-4c-1.7-2.1-3.5-4.1-4.9-5.9c1-1.1,2.7-2.9,4.3-4.7
			c-2.8-1.1-5.5-2.1-8.3-3.2c-0.1-0.3-0.3-0.6-0.4-0.9c3,0.1,6.3-0.5,9,0.6c3.3,1.3,3.3,4.3,1.3,7.3c-0.3,0.5-0.3,1.6,0,2
			c2.4,2.8,2.7,5.8-0.2,8.2C515.9,312.2,512.1,312.1,508.6,310.2z"/>
		<path class="st0" d="M394.3,196.8c-4.5,0-7.7,0-9.8,0c0.8-3.2,2-6.3,2.3-9.5c0.3-3.3,1.7-7.7-4.5-8.6c2.1-0.6,4.2-1.2,6.2-1.7
			C392.3,183.3,385.8,191.4,394.3,196.8z"/>
		<g>
			<path class="st2" d="M410.4,562.5h-28.2v-7h64.2v7h-28.2v75.6h-7.7V562.5z"/>
			<path class="st2" d="M459,555.5h7.7v82.6H459V555.5z"/>
			<path class="st2" d="M488.5,555.5h11.5l30.1,69.3l30.1-69.3h11v82.6h-7.7v-72.8h-0.2l-31.5,72.8h-3.4l-32-72.8h-0.2v72.8h-7.7
				V555.5z"/>
			<path class="st2" d="M593.1,555.5h50.5v7h-42.8v29.4h40.1v7h-40.1v32.2h44.7v7h-52.4V555.5z"/>
			<path class="st2" d="M662.2,555.5h21.7c6.5,0,29.4,0,29.4,21.7c0,15.8-12,20.1-21.1,21.2l24,39.7h-8.8l-23.2-39.2h-14.4v39.2
				h-7.7V555.5z M669.9,591.9h16.3c16.2,0,19.4-9,19.4-14.7s-3.2-14.7-19.4-14.7h-16.3V591.9z"/>
		</g>
		<g>
			<path class="st3" d="M138.9,581.5c0,8.7-2.8,15.4-8.5,20c-5.7,4.6-13.8,7-24.3,7h-8.7v31.2H83.7v-83.3h24
				c10.4,0,18.2,2.1,23.4,6.4C136.3,566.9,138.9,573.2,138.9,581.5z M97.3,597h7.2c7,0,12.1-1.2,15.4-3.6c3.3-2.4,4.9-6.2,4.9-11.4
				c0-4.8-1.5-8.4-4.4-10.7c-2.9-2.4-7.5-3.5-13.7-3.5h-9.5V597z"/>
			<path class="st3" d="M229.5,597.8c0,13.6-3.4,24.1-10.2,31.6s-16.4,11.3-28.8,11.3c-12.6,0-22.2-3.7-29-11.2
				c-6.7-7.5-10.1-18.1-10.1-31.8c0-13.7,3.4-24.3,10.2-31.7c6.8-7.4,16.5-11.1,29-11.1c12.4,0,22,3.7,28.7,11.2
				C226.1,573.7,229.5,584.2,229.5,597.8z M165.9,597.8c0,10.3,2.1,18,6.2,23.3c4.1,5.3,10.3,7.9,18.4,7.9c8.1,0,14.2-2.6,18.3-7.9
				c4.1-5.2,6.2-13,6.2-23.4c0-10.2-2-18-6.1-23.2c-4.1-5.3-10.2-7.9-18.3-7.9c-8.2,0-14.3,2.6-18.5,7.9
				C168,579.9,165.9,587.6,165.9,597.8z"/>
			<path class="st3" d="M295.4,617c0,7.4-2.7,13.2-8,17.4c-5.4,4.2-12.7,6.3-22.2,6.3c-9.4,0-17.1-1.5-23.1-4.4v-12.9
				c3.8,1.8,7.8,3.2,12.1,4.2s8.3,1.5,11.9,1.5c5.4,0,9.4-1,11.9-3.1s3.8-4.8,3.8-8.3c0-3.1-1.2-5.8-3.5-7.9
				c-2.4-2.2-7.2-4.7-14.6-7.7c-7.6-3.1-13-6.6-16.1-10.5c-3.1-3.9-4.7-8.7-4.7-14.2c0-7,2.5-12.4,7.4-16.4c4.9-4,11.6-6,19.9-6
				c8,0,15.9,1.7,23.8,5.2l-4.3,11.1c-7.4-3.1-14-4.7-19.8-4.7c-4.4,0-7.7,1-10,2.9c-2.3,1.9-3.4,4.5-3.4,7.6c0,2.2,0.5,4,1.4,5.6
				s2.4,3,4.5,4.4c2.1,1.4,5.8,3.2,11.3,5.4c6.1,2.5,10.6,4.9,13.4,7.1c2.8,2.2,4.9,4.7,6.3,7.5C294.7,609.9,295.4,613.2,295.4,617z
				"/>
			<path class="st3" d="M340.3,639.6h-13.6V568h-24.5v-11.7h62.6V568h-24.5V639.6z"/>
		</g>
	</g>
	<rect x="-0.5" y="706.3" class="st4" width="801" height="93"/>
	<g>
		<g>
			<path class="st5" d="M259.3,764.7h-3.5l13.6-30.1h3l13.6,30.1h-3.5l-3.3-7.3h-16.7L259.3,764.7z M263.8,754.6H278l-7.1-16
				L263.8,754.6z"/>
			<path class="st5" d="M309.6,764.3c-5.4,1-7.4,1-10.6,1c-6,0-10.1-4.1-10.1-10.9c0-6.4,3.8-10.7,10.5-10.7c2.4,0,4.8,0.2,7.2,0.9
				v-11.2h3V764.3z M291.9,754.4c0,5,2.8,8.4,7.7,8.4c1.9,0,3.5,0,7-0.6v-14.9c-2.6-0.7-4.8-0.9-6.9-0.9
				C294.5,746.3,291.9,749.6,291.9,754.4z"/>
			<path class="st5" d="M336.4,764.3c-5.4,1-7.4,1-10.6,1c-6,0-10.1-4.1-10.1-10.9c0-6.4,3.8-10.7,10.5-10.7c2.4,0,4.8,0.2,7.2,0.9
				v-11.2h3V764.3z M318.6,754.4c0,5,2.8,8.4,7.7,8.4c1.9,0,3.5,0,7-0.6v-14.9c-2.6-0.7-4.8-0.9-6.9-0.9
				C321.3,746.3,318.6,749.6,318.6,754.4z"/>
			<path class="st5" d="M369.8,764.7l-8.4-24.7l-8.4,24.7H350l-10.3-29.9h3.3l8.5,25.1l8.4-25.1h2.7l8.5,25.1l8.4-25.1h3.3
				l-10.3,29.9H369.8z"/>
			<path class="st5" d="M403.7,753.4c0,1,0,1.4-0.1,2.3h-16.9c0.5,4.2,3.4,7,7.9,7c2.6,0,4.7-0.4,7.5-1.1l0.5,2.5
				c-2.7,0.8-5,1.4-8.1,1.4c-7,0-11-4.5-11-10.9c0-6.5,4.4-10.8,10.6-10.8C399.7,743.7,403.6,747.4,403.7,753.4z M386.5,753.3h14.4
				c-0.1-4.4-2.9-7.1-7-7.1C389.7,746.2,386.9,749,386.5,753.3z"/>
			<path class="st5" d="M412.7,744.6c2.5-0.7,4.8-0.9,7.2-0.9c6.7,0,10.5,4.3,10.5,10.7c0,6.7-4.1,10.9-10.1,10.9
				c-3.2,0-5.2,0-10.6-1v-30.8h3V744.6z M412.8,747.2v14.9c3.5,0.6,5.1,0.6,7,0.6c4.9,0,7.7-3.3,7.7-8.4c0-4.8-2.6-8.1-7.8-8.1
				C417.6,746.3,415.4,746.5,412.8,747.2z"/>
		</g>
		<g>
			<path class="st5" d="M205.8,768.8l5.8-9.5h7.8c0.9,0,1.9,0,2.9,0c1,0,1.9,0,2.6,0.1c-0.4-0.7-0.9-1.5-1.5-2.5
				c-0.6-1-1.1-2-1.7-2.8l-5.6-9.8l-14.7,24.6h-11.4l20-33.5c0.7-1.1,1.5-2,2.5-2.9c1-0.8,2.3-1.3,3.8-1.3c1.5,0,2.7,0.4,3.7,1.2
				c1,0.8,1.8,1.8,2.5,3l19.5,33.5H205.8z"/>
		</g>
		<g>
			<g>
				<path class="st6" d="M458,738.7c-3.4-1-7.2-1.7-10.1-1.7c-4.3,0-7.2,2-7.2,5.5c0,3,2.3,4.1,7.6,5.2c6.6,1.4,11.4,2.9,11.4,8.8
					c0,5.7-4.6,8.8-11.1,8.8c-3.9,0-8.5-0.9-12.5-2.5l0.8-2.9c4,1.6,8.3,2.5,11.7,2.5c4.6,0,7.8-2,7.8-5.7c0-4.6-5.1-5.3-10-6.3
					c-6.6-1.4-9.2-3.3-9.2-7.7c0-5.2,4.2-8.4,10.6-8.4c3.8,0,8,0.8,10.8,1.8L458,738.7z"/>
				<path class="st6" d="M486.8,754.5c0,6.6-4.6,11-11.1,11s-11.1-4.4-11.1-11c0-6.5,4.6-10.9,11.1-10.9S486.8,747.9,486.8,754.5z
					 M483.8,754.5c0-4.9-3.3-8.1-8.1-8.1c-4.7,0-8.1,3.2-8.1,8.1c0,4.9,3.3,8.2,8.1,8.2C480.5,762.7,483.8,759.4,483.8,754.5z"/>
				<path class="st6" d="M496.2,764.7h-3v-31.2h3V764.7z"/>
				<path class="st6" d="M523.4,764.3c-3,0.7-7.5,1.1-11.1,1.1c-5.1,0-8.3-2.6-8.3-8.3v-12.7h3v12.1c0,4.1,2.1,6.3,5.9,6.3
					c2.2,0,4.8-0.2,7.6-0.6v-17.8h3V764.3z"/>
				<path class="st6" d="M544.5,764.8c-1.6,0.4-2.8,0.6-4.5,0.6c-4.7,0-6.9-2.4-6.9-7.7v-10.5h-4.7v-2.7h4.7v-8.5h3v8.5h7.3v2.7H536
					v10.3c0,3.7,1.2,5.3,4.4,5.3c1.1,0,2.3-0.1,3.7-0.4L544.5,764.8z"/>
				<path class="st6" d="M549.3,737c0-1.3,1-2.2,2.2-2.2s2.2,0.9,2.2,2.2c0,1.2-1,2.2-2.2,2.2S549.3,738.3,549.3,737z M553,764.7h-3
					v-20.3h3V764.7z"/>
				<path class="st6" d="M581.4,754.5c0,6.6-4.6,11-11.1,11s-11.1-4.4-11.1-11c0-6.5,4.6-10.9,11.1-10.9S581.4,747.9,581.4,754.5z
					 M578.3,754.5c0-4.9-3.3-8.1-8.1-8.1c-4.7,0-8.1,3.2-8.1,8.1c0,4.9,3.3,8.2,8.1,8.2C575,762.7,578.3,759.4,578.3,754.5z"/>
				<path class="st6" d="M606.8,752v12.7h-3v-12c0-3.9-2.2-6.2-5.9-6.2c-2.2,0-4.8,0.1-7.6,0.6v17.6h-3v-19.9
					c3-0.7,7.5-1.1,11.1-1.1C603.7,743.7,606.8,746.8,606.8,752z"/>
			</g>
		</g>
	</g>
</g>
</svg>
