<?xml version="1.0" encoding="utf-8"?>
<!-- Generator: Adobe Illustrator 19.2.1, SVG Export Plug-In . SVG Version: 6.00 Build 0)  -->
<svg version="1.1" id="Layer_1" xmlns="http://www.w3.org/2000/svg" xmlns:xlink="http://www.w3.org/1999/xlink" x="0px" y="0px"
	 viewBox="0 0 807.5 800.8" style="enable-background:new 0 0 807.5 800.8;" xml:space="preserve">
<style type="text/css">
	.st0{fill:#F1DE4E;}
	.st1{fill:#FFB81D;}
	.st2{fill:#28333E;}
	.st3{fill:#FFFFFF;}
	.st4{fill:#DFD726;}
	.st5{fill:#071C2C;}
	.st6{fill:#61B4E4;}
	.st7{fill:#005CB9;}
	.st8{fill:#DB5947;stroke:#000000;stroke-width:11;stroke-miterlimit:10;}
</style>
<rect class="st0" width="807.5" height="750.1"/>
<path class="st1" d="M446,800.8L0.5,799.3L0,499.3L454.3,798"/>
<g id="Background">
</g>
<polygon class="st1" points="807,799.3 666.9,770.8 807.5,484.3 807.5,561.3 "/>
<rect y="706.8" class="st2" width="807.5" height="94"/>
<g>
	<g>
		<path class="st3" d="M265.9,764.7h-3.5l13.6-30.1h3l13.6,30.1h-3.5l-3.3-7.3h-16.7L265.9,764.7z M270.4,754.6h14.2l-7.1-16
			L270.4,754.6z"/>
		<path class="st3" d="M316.2,764.3c-5.4,1-7.4,1-10.6,1c-6,0-10.1-4.1-10.1-10.9c0-6.4,3.8-10.7,10.5-10.7c2.4,0,4.8,0.2,7.2,0.9
			v-11.2h3V764.3z M298.5,754.4c0,5,2.8,8.4,7.7,8.4c1.9,0,3.5,0,7-0.6v-14.9c-2.6-0.7-4.8-0.9-6.9-0.9
			C301.1,746.3,298.5,749.6,298.5,754.4z"/>
		<path class="st3" d="M343,764.3c-5.4,1-7.4,1-10.6,1c-6,0-10.1-4.1-10.1-10.9c0-6.4,3.8-10.7,10.5-10.7c2.4,0,4.8,0.2,7.2,0.9
			v-11.2h3V764.3z M325.2,754.4c0,5,2.8,8.4,7.7,8.4c1.9,0,3.5,0,7-0.6v-14.9c-2.6-0.7-4.8-0.9-6.9-0.9
			C327.9,746.3,325.2,749.6,325.2,754.4z"/>
		<path class="st3" d="M376.4,764.7L368,740l-8.4,24.7h-3l-10.3-29.9h3.3l8.5,25.1l8.4-25.1h2.7l8.5,25.1l8.4-25.1h3.3l-10.3,29.9
			H376.4z"/>
		<path class="st3" d="M410.3,753.4c0,1,0,1.4-0.1,2.3h-16.9c0.5,4.2,3.4,7,7.9,7c2.6,0,4.7-0.4,7.5-1.1l0.5,2.5
			c-2.7,0.8-5,1.4-8.1,1.4c-7,0-11-4.5-11-10.9c0-6.5,4.4-10.8,10.6-10.8C406.3,743.7,410.2,747.4,410.3,753.4z M393.1,753.3h14.4
			c-0.1-4.4-2.9-7.1-7-7.1C396.3,746.2,393.5,749,393.1,753.3z"/>
		<path class="st3" d="M419.3,744.6c2.5-0.7,4.8-0.9,7.2-0.9c6.7,0,10.5,4.3,10.5,10.7c0,6.7-4.1,10.9-10.1,10.9
			c-3.2,0-5.2,0-10.6-1v-30.8h3V744.6z M419.4,747.2v14.9c3.5,0.6,5.1,0.6,7,0.6c4.9,0,7.7-3.3,7.7-8.4c0-4.8-2.6-8.1-7.8-8.1
			C424.2,746.3,422,746.5,419.4,747.2z"/>
	</g>
	<g>
		<path class="st3" d="M212.4,768.8l5.8-9.5h7.8c0.9,0,1.9,0,2.9,0s1.9,0,2.6,0.1c-0.4-0.7-0.9-1.5-1.5-2.5s-1.1-2-1.7-2.8l-5.6-9.8
			L208,768.9h-11.4l20-33.5c0.7-1.1,1.5-2,2.5-2.9c1-0.8,2.3-1.3,3.8-1.3s2.7,0.4,3.7,1.2s1.8,1.8,2.5,3l19.5,33.5L212.4,768.8
			L212.4,768.8z"/>
	</g>
	<g>
		<g>
			<path class="st4" d="M464.6,738.7c-3.4-1-7.2-1.7-10.1-1.7c-4.3,0-7.2,2-7.2,5.5c0,3,2.3,4.1,7.6,5.2c6.6,1.4,11.4,2.9,11.4,8.8
				c0,5.7-4.6,8.8-11.1,8.8c-3.9,0-8.5-0.9-12.5-2.5l0.8-2.9c4,1.6,8.3,2.5,11.7,2.5c4.6,0,7.8-2,7.8-5.7c0-4.6-5.1-5.3-10-6.3
				c-6.6-1.4-9.2-3.3-9.2-7.7c0-5.2,4.2-8.4,10.6-8.4c3.8,0,8,0.8,10.8,1.8L464.6,738.7z"/>
			<path class="st4" d="M493.4,754.5c0,6.6-4.6,11-11.1,11s-11.1-4.4-11.1-11c0-6.5,4.6-10.9,11.1-10.9S493.4,747.9,493.4,754.5z
				 M490.4,754.5c0-4.9-3.3-8.1-8.1-8.1c-4.7,0-8.1,3.2-8.1,8.1c0,4.9,3.3,8.2,8.1,8.2S490.4,759.4,490.4,754.5z"/>
			<path class="st4" d="M502.8,764.7h-3v-31.2h3V764.7z"/>
			<path class="st4" d="M530,764.3c-3,0.7-7.5,1.1-11.1,1.1c-5.1,0-8.3-2.6-8.3-8.3v-12.7h3v12.1c0,4.1,2.1,6.3,5.9,6.3
				c2.2,0,4.8-0.2,7.6-0.6v-17.8h3v19.9H530z"/>
			<path class="st4" d="M551.1,764.8c-1.6,0.4-2.8,0.6-4.5,0.6c-4.7,0-6.9-2.4-6.9-7.7v-10.5H535v-2.7h4.7V736h3v8.5h7.3v2.7h-7.4
				v10.3c0,3.7,1.2,5.3,4.4,5.3c1.1,0,2.3-0.1,3.7-0.4L551.1,764.8z"/>
			<path class="st4" d="M555.9,737c0-1.3,1-2.2,2.2-2.2s2.2,0.9,2.2,2.2c0,1.2-1,2.2-2.2,2.2S555.9,738.3,555.9,737z M559.6,764.7
				h-3v-20.3h3V764.7z"/>
			<path class="st4" d="M588,754.5c0,6.6-4.6,11-11.1,11s-11.1-4.4-11.1-11c0-6.5,4.6-10.9,11.1-10.9S588,747.9,588,754.5z
				 M584.9,754.5c0-4.9-3.3-8.1-8.1-8.1c-4.7,0-8.1,3.2-8.1,8.1c0,4.9,3.3,8.2,8.1,8.2S584.9,759.4,584.9,754.5z"/>
			<path class="st4" d="M613.4,752v12.7h-3v-12c0-3.9-2.2-6.2-5.9-6.2c-2.2,0-4.8,0.1-7.6,0.6v17.6h-3v-19.9c3-0.7,7.5-1.1,11.1-1.1
				C610.3,743.7,613.4,746.8,613.4,752z"/>
		</g>
	</g>
</g>
<path class="st5" d="M478.4,487.8"/>
<path class="st5" d="M429.8,502.2"/>
<path class="st5" d="M467.1,588.1"/>
<path class="st5" d="M470.3,589"/>
<path class="st5" d="M346.9,498.7"/>
<g>
	<g>
		<path class="st6" d="M591,105.3c-67.9,0-123,55.1-123,123c0,30.6,11.2,58.6,29.7,80.2c-5.6,16-15.8,29.8-29.2,39.7
			c8.5,2.9,17.6,4.5,27,4.5c16.2,0,31.3-4.6,44.1-12.6c15.6,7.2,33.1,11.2,51.4,11.2c67.9,0,123-55.1,123-123
			C714,160.4,658.9,105.3,591,105.3L591,105.3z M591,105.3"/>
		<path class="st3" d="M659.5,176c-5.5,3.2-11.5,5.5-17.9,6.8c-5.1-5.4-12.5-8.8-20.6-8.8c-15.6,0-28.2,12.4-28.2,27.8
			c0,2.2,0.2,4.3,0.7,6.3c-23.5-1.2-44.3-12.2-58.2-29c-2.4,4.1-3.8,8.9-3.8,14c0,9.6,5,18.1,12.6,23.1c-4.6-0.2-9-1.4-12.8-3.5v0.4
			c0,13.5,9.7,24.7,22.6,27.2c-2.4,0.6-4.9,1-7.4,1c-1.8,0-3.6-0.2-5.3-0.5c3.6,11,14,19.1,26.4,19.3c-9.7,7.4-21.8,11.9-35.1,11.9
			c-2.3,0-4.5-0.1-6.7-0.4c12.5,7.9,27.3,12.5,43.3,12.5c51.9,0,80.3-42.3,80.3-79c0-1.2,0-2.4-0.1-3.6c5.5-3.9,10.3-8.8,14.1-14.4
			c-5.1,2.2-10.5,3.7-16.2,4.4C652.9,187.9,657.4,182.4,659.5,176L659.5,176z M659.5,176"/>
		<path class="st5" d="M664,181c0.5-1,0.9-2.1,1.2-3.2c0.8-2.4,0-5-1.9-6.5c-1.9-1.6-4.6-1.8-6.8-0.5c-4.1,2.4-8.5,4.2-13.1,5.4
			c-6.2-5.3-14.2-8.2-22.4-8.2c-18.8,0-34,15-34.2,33.4c-18.3-2.6-35-11.9-46.8-26.2c-1.2-1.5-3.2-2.3-5.1-2.2
			c-1.9,0.2-3.7,1.2-4.7,2.9c-3.1,5.2-4.7,11-4.7,17c0,5,1.1,9.8,3.2,14.2c-0.2,0.1-0.3,0.2-0.5,0.3c-1.8,1.1-2.9,3-2.9,5.2v0.4
			c0,9.6,4.1,18.4,10.8,24.6c-0.9,1.5-1.1,3.3-0.6,5c2.8,8.6,8.9,15.5,16.6,19.5c-6.1,2.5-12.7,3.8-19.6,3.8c-2,0-4.1-0.1-6-0.3
			c-2.8-0.3-5.4,1.3-6.4,4c-0.9,2.6,0.1,5.6,2.5,7.1c13.9,8.8,30,13.4,46.5,13.4c32.4,0,52.8-15.1,64.1-27.8
			c14.1-15.8,22.2-36.6,22.2-57.3c0-0.2,0-0.4,0-0.7c5-4,9.4-8.6,13-14c1.5-2.2,1.4-5.1-0.4-7.2C666.9,181.9,665.5,181.2,664,181
			L664,181z M643.3,204.9c0,17.7-7,35.7-19.1,49.3C614.5,265,597,278,569,278c-6.5,0-12.9-0.8-19.2-2.5c7.7-2.2,14.9-5.8,21.3-10.8
			c2-1.6,2.8-4.2,2-6.6c-0.8-2.4-3-4.1-5.6-4.1c-6.3-0.1-12-2.8-16.1-7.2c1.3-0.2,2.6-0.5,3.9-0.8c2.7-0.7,4.5-3.2,4.4-6
			c-0.1-2.8-2.1-5.1-4.8-5.7c-7.3-1.4-13.2-6.3-16-12.7c1.6,0.3,3.2,0.4,4.8,0.5c2.7,0.1,5.1-1.6,5.9-4.2c0.8-2.6-0.2-5.3-2.4-6.8
			c-6.2-4.1-9.9-10.8-9.9-18.1c0-0.9,0.1-1.8,0.2-2.7c14.9,14.2,34.7,22.7,55.5,23.7c1.9,0.1,3.7-0.7,4.9-2.1
			c1.2-1.4,1.7-3.4,1.2-5.2c-0.4-1.6-0.6-3.3-0.6-5c0-12,10-21.8,22.2-21.8c6.1,0,12.1,2.5,16.3,6.9c1.2,1.2,2.8,1.9,4.5,1.9
			c-0.7,1.4-0.8,3-0.3,4.5c0.6,1.8,2,3.1,3.7,3.7c-1.3,1.2-1.9,2.9-1.9,4.6C643.3,202.6,643.3,203.6,643.3,204.9L643.3,204.9z
			 M591,99.3c-71.1,0-129,57.9-129,129c0,29.7,10.2,58.4,28.9,81.3c-5.3,13.4-14.2,25-25.9,33.7c-1.8,1.3-2.7,3.5-2.4,5.7
			c0.3,2.2,1.9,4,4,4.8c9.3,3.2,19.1,4.8,28.9,4.8c15.7,0,31-4.1,44.5-11.8c16.1,7,33.3,10.5,51,10.5c71.1,0,129-57.9,129-129
			C720,157.2,662.1,99.3,591,99.3L591,99.3z M591,345.3c-17.1,0-33.5-3.6-48.9-10.7c-1.8-0.8-4-0.7-5.7,0.4
			c-12.3,7.6-26.4,11.7-40.9,11.7c-4.8,0-9.7-0.4-14.4-1.3c10-9.7,17.6-21.6,22.2-34.8c0.7-2,0.3-4.3-1.1-5.9
			C484,283.3,474,256.3,474,228.3c0-64.5,52.5-117,117-117c64.5,0,117,52.5,117,117C708,292.8,655.5,345.3,591,345.3L591,345.3z
			 M591,345.3"/>
	</g>
	<g>
		<path class="st7" d="M219,166.6c-67.9,0-123,55.1-123,123c0,30.6,11.2,58.6,29.7,80.2c-5.6,16-15.8,29.8-29.2,39.7
			c8.5,2.9,17.6,4.5,27,4.5c16.2,0,31.3-4.6,44.1-12.6c15.6,7.2,33.1,11.2,51.4,11.2c67.9,0,123-55.1,123-123
			C342,221.6,287,166.6,219,166.6L219,166.6z M219,166.6"/>
		<path class="st3" d="M200.6,358.6h28.9v-72.2h21.4l2.6-28.9h-23v-11.6c0-5.6,3.8-6.9,6.4-6.9h16.2v-24.8l-22.3-0.1
			c-24.8,0-30.4,18.5-30.4,30.3v13.1h-14.3v28.9h14.4V358.6z M200.6,358.6"/>
		<path class="st5" d="M253.5,251.5h-17v-5.6c0-0.5,0-0.7,0.1-0.9c0.1,0,0.2,0,0.3,0h16.2c3.3,0,6-2.7,6-6v-24.8c0-3.3-2.7-6-6-6
			l-22.3-0.1c-26.9,0-36.4,19.5-36.4,36.3v7.1h-8.3c-3.3,0-6,2.7-6,6v28.9c0,3.3,2.7,6,6,6h8.4v66.2c0,3.3,2.7,6,6,6h28.9
			c3.3,0,6-2.7,6-6v-66.2h15.4c3.1,0,5.7-2.4,6-5.5l2.6-28.9c0.2-1.7-0.4-3.3-1.5-4.6C256.8,252.2,255.2,251.5,253.5,251.5
			L253.5,251.5z M245.4,280.4h-16c-3.3,0-6,2.7-6,6v66.2h-16.9v-66.2c0-3.3-2.7-6-6-6h-8.4v-16.9h8.3c3.3,0,6-2.7,6-6v-13.1
			c0-7.3,2.4-24.3,24.4-24.3l16.3,0.1V233H237c-6,0-12.4,4-12.4,12.9v11.6c0,3.3,2.7,6,6,6H247L245.4,280.4z M219,160.6
			c-71.1,0-129,57.9-129,129c0,29.7,10.2,58.4,28.9,81.3c-5.3,13.4-14.2,25-25.9,33.7c-1.8,1.3-2.7,3.5-2.4,5.7c0.3,2.2,1.9,4,4,4.8
			c9.3,3.2,19.1,4.8,28.9,4.8c15.7,0,31-4.1,44.5-11.8c16.1,7,33.3,10.5,51,10.5c71.1,0,129-57.9,129-129
			C348,218.4,290.2,160.6,219,160.6L219,160.6z M219,406.6c-17.1,0-33.5-3.6-48.9-10.7c-1.8-0.8-4-0.7-5.7,0.4
			c-12.3,7.6-26.4,11.7-40.9,11.7c-4.8,0-9.7-0.4-14.4-1.3c10-9.7,17.6-21.6,22.2-34.8c0.7-2,0.3-4.3-1.1-5.9
			c-18.2-21.2-28.3-48.3-28.3-76.3c0-64.5,52.5-117,117-117c64.5,0,117,52.5,117,117C336,354.1,283.5,406.6,219,406.6L219,406.6z
			 M219,406.6"/>
	</g>
	<path class="st8" d="M592.8,562.4c19.8-68.3-19.6-140-87.9-159.8c-28.5-8.3-58.9-6.5-86.2,5.1c-11.4-8.8-20-20.6-25.1-34.3
		c-0.8-2.1-2.6-3.6-4.9-3.9c-2.2-0.3-4.4,0.7-5.7,2.5c-5.7,8.1-9.9,17-12.7,26.5c-4.4,15-4.7,30.9-1.1,46
		c-11.2,13.5-19.3,29-24.3,46.1c-19.8,68.3,19.6,140,87.9,159.8C501.3,670.1,573,630.7,592.8,562.4L592.8,562.4z"/>
	<g>
		<path class="st3" d="M489.1,535.5c-3.5,23.1-26.3,35.5-36.3,35.5c-25.1,0-44.7-19.6-44.7-44.7c0-25.1,20.1-44.7,45.2-44.7
			c4.2,0,15.4,3.5,23.1,10.9l-13.2,13.2c-4.2-4.5-10.4-6.7-17.4-6.7c-14.9,0-27.8,12.4-27.8,27.3c0,14.9,12.9,27.3,27.8,27.3
			c12.4,0,21.9-7.9,24.6-19.9h-25.1v-17.4h43.7c0.5,3,0.7,6.7,0.7,9.9C489.8,529.5,489.6,532.5,489.1,535.5"/>
		<path class="st3" d="M408.1,526.3c0-24.1,18.4-43,42-44.5c-1.2-0.2-2.7-0.2-4.2-0.2c-25.1,0-45.2,19.6-45.2,44.7
			c0,25.1,20.1,44.7,45.2,44.7c1.2,0,2.7,0,4-0.2C426.2,569.5,408.1,550.4,408.1,526.3"/>
		<polygon class="st3" points="537.2,528.8 529.8,528.8 529.8,543.7 517.4,543.7 517.4,528.8 509.9,528.8 509.9,516.4 517.4,516.4 
			517.4,501.5 529.8,501.5 529.8,516.4 537.2,516.4 		"/>
		<polygon class="st3" points="537.2,528.8 544.7,528.8 544.7,516.4 537.2,516.4 		"/>
		<polygon class="st3" points="502.5,528.8 509.9,528.8 509.9,516.4 502.5,516.4 		"/>
		<path d="M445.9,573.5c-26.8,0-47.7-20.6-47.7-47.2c0-11.7,4.2-22.8,11.9-31.5c1-1,2.5-1,3.5-0.2c1,1,1,2.5,0.2,3.5
			c-7,7.7-10.7,17.9-10.7,28.3c0,23.6,18.9,42.2,42.7,42.2c22.4,0,37.5-12.4,40.7-33.5c0.5-2.7,0.7-5.7,0.7-8.7
			c0-2.5-0.2-5.2-0.5-7.5h-39v12.4h22.6c0.7,0,1.5,0.2,2,1c0.5,0.5,0.7,1.2,0.5,2c-3,13.2-13.7,21.9-27.1,21.9
			c-16.4,0-30.3-13.7-30.3-29.8c0-16.1,13.9-29.8,30.3-29.8c7,0,12.9,2,17.4,5.7l9.7-9.7c-7-5.5-15.9-8.4-27.1-8.4
			c-7,0-13.4,1.5-19.4,4.5c-1.2,0.5-2.7,0-3.2-1.2c-0.5-1.2,0-2.7,1.2-3.2c6.7-3.2,13.9-5,21.4-5c13.4,0,24.6,4,32.3,11.7
			c0.5,0.5,0.7,1,0.7,1.7c0,0.7-0.2,1.2-0.7,1.7l-12.9,13.2c-0.5,0.5-1,0.7-1.7,0.7l0,0c-0.7,0-1.2-0.2-1.7-0.7c-4-4-9.4-6-15.9-6
			c-13.4,0-25.3,11.7-25.3,24.8c0,13.2,11.9,24.8,25.3,24.8c10.2,0,17.9-5.7,21.4-14.9h-21.9c-1.5,0-2.5-1-2.5-2.5v-17.4
			c0-1.5,1-2.5,2.5-2.5h43.7c1.2,0,2.2,0.7,2.5,2c0.5,3,0.7,6.7,0.7,10.4c0,3.2-0.2,6.5-0.7,9.4
			C488.1,559.1,470.4,573.5,445.9,573.5z"/>
		<path d="M420.5,491.6c0-1.5-1-2.5-2.5-2.5s-2.5,1-2.5,2.5c0,1.5,1,2.5,2.5,2.5S420.5,493,420.5,491.6"/>
		<path d="M532.3,546.2h-17.4v-14.9H500v-17.4h14.9V499h17.4v14.9h14.9v17.4h-14.9V546.2z M519.9,541.2h7.5v-14.9h14.9v-7.5h-14.9
			V504h-7.5v14.9H505v7.5h14.9V541.2z"/>
	</g>
</g>
</svg>
