<?xml version="1.0" encoding="utf-8"?>
<!-- Generator: Adobe Illustrator 19.2.1, SVG Export Plug-In . SVG Version: 6.00 Build 0)  -->
<svg version="1.1" id="Layer_1" xmlns="http://www.w3.org/2000/svg" xmlns:xlink="http://www.w3.org/1999/xlink" x="0px" y="0px"
	 viewBox="0 0 802 800" style="enable-background:new 0 0 802 800;" xml:space="preserve">
<style type="text/css">
	.st0{fill:url(#SVGID_1_);}
	.st1{fill:#28333E;stroke:#1D1D1B;stroke-miterlimit:10;}
	.st2{fill:#FFFFFF;}
	.st3{fill:#DFD726;}
	.st4{fill:none;stroke:#487A8E;stroke-width:10.7152;stroke-miterlimit:10;}
	.st5{fill:none;stroke:#487A8E;stroke-width:5.3576;stroke-miterlimit:10;}
	.st6{fill:#EFA91B;}
	.st7{fill:#D38C0D;}
	.st8{fill:#223542;}
	.st9{fill:#0E75AF;}
	.st10{fill:#135184;}
	.st11{fill:#23C181;}
	.st12{fill:#079E81;}
	.st13{fill:#C42014;}
	.st14{fill:#A00C08;}
	.st15{fill:#ED8E1D;}
	.st16{fill:#D0E2DF;}
	.st17{opacity:0.4;}
	.st18{fill:#FC663F;}
	.st19{enable-background:new    ;}
</style>
<radialGradient id="SVGID_1_" cx="401" cy="400" r="458.3332" gradientTransform="matrix(1 0 0 -1 0 800)" gradientUnits="userSpaceOnUse">
	<stop  offset="0" style="stop-color:#FEF1D6"/>
	<stop  offset="1" style="stop-color:#F4E8D1"/>
</radialGradient>
<rect x="1" class="st0" width="800" height="800"/>
<g id="Background">
</g>
<rect x="0.5" y="706.3" class="st1" width="801" height="93"/>
<g>
	<g>
		<path class="st2" d="M261.9,764.7h-3.5l13.6-30.1h3l13.6,30.1h-3.5l-3.3-7.3h-16.7L261.9,764.7z M266.4,754.6h14.2l-7.1-16
			L266.4,754.6z"/>
		<path class="st2" d="M312.2,764.3c-5.4,1-7.4,1-10.6,1c-6,0-10.1-4.1-10.1-10.9c0-6.4,3.8-10.7,10.5-10.7c2.4,0,4.8,0.2,7.2,0.9
			v-11.2h3V764.3z M294.5,754.4c0,5,2.8,8.4,7.7,8.4c1.9,0,3.5,0,7-0.6v-14.9c-2.6-0.7-4.8-0.9-6.9-0.9
			C297.1,746.3,294.5,749.6,294.5,754.4z"/>
		<path class="st2" d="M339,764.3c-5.4,1-7.4,1-10.6,1c-6,0-10.1-4.1-10.1-10.9c0-6.4,3.8-10.7,10.5-10.7c2.4,0,4.8,0.2,7.2,0.9
			v-11.2h3V764.3z M321.2,754.4c0,5,2.8,8.4,7.7,8.4c1.9,0,3.5,0,7-0.6v-14.9c-2.6-0.7-4.8-0.9-6.9-0.9
			C323.9,746.3,321.2,749.6,321.2,754.4z"/>
		<path class="st2" d="M372.4,764.7L364,740l-8.4,24.7h-3l-10.3-29.9h3.3l8.5,25.1l8.4-25.1h2.7l8.5,25.1l8.4-25.1h3.3l-10.3,29.9
			H372.4z"/>
		<path class="st2" d="M406.3,753.4c0,1,0,1.4-0.1,2.3h-16.9c0.5,4.2,3.4,7,7.9,7c2.6,0,4.7-0.4,7.5-1.1l0.5,2.5
			c-2.7,0.8-5,1.4-8.1,1.4c-7,0-11-4.5-11-10.9c0-6.5,4.4-10.8,10.6-10.8C402.3,743.7,406.2,747.4,406.3,753.4z M389.1,753.3h14.4
			c-0.1-4.4-2.9-7.1-7-7.1C392.3,746.2,389.5,749,389.1,753.3z"/>
		<path class="st2" d="M415.3,744.6c2.5-0.7,4.8-0.9,7.2-0.9c6.7,0,10.5,4.3,10.5,10.7c0,6.7-4.1,10.9-10.1,10.9
			c-3.2,0-5.2,0-10.6-1v-30.8h3V744.6z M415.4,747.2v14.9c3.5,0.6,5.1,0.6,7,0.6c4.9,0,7.7-3.3,7.7-8.4c0-4.8-2.6-8.1-7.8-8.1
			C420.2,746.3,418,746.5,415.4,747.2z"/>
	</g>
	<g>
		<path class="st2" d="M208.4,768.8l5.8-9.5h7.8c0.9,0,1.9,0,2.9,0s1.9,0,2.6,0.1c-0.4-0.7-0.9-1.5-1.5-2.5s-1.1-2-1.7-2.8l-5.6-9.8
			L204,768.9h-11.4l20-33.5c0.7-1.1,1.5-2,2.5-2.9c1-0.8,2.3-1.3,3.8-1.3s2.7,0.4,3.7,1.2s1.8,1.8,2.5,3l19.5,33.5L208.4,768.8
			L208.4,768.8z"/>
	</g>
	<g>
		<g>
			<path class="st3" d="M460.6,738.7c-3.4-1-7.2-1.7-10.1-1.7c-4.3,0-7.2,2-7.2,5.5c0,3,2.3,4.1,7.6,5.2c6.6,1.4,11.4,2.9,11.4,8.8
				c0,5.7-4.6,8.8-11.1,8.8c-3.9,0-8.5-0.9-12.5-2.5l0.8-2.9c4,1.6,8.3,2.5,11.7,2.5c4.6,0,7.8-2,7.8-5.7c0-4.6-5.1-5.3-10-6.3
				c-6.6-1.4-9.2-3.3-9.2-7.7c0-5.2,4.2-8.4,10.6-8.4c3.8,0,8,0.8,10.8,1.8L460.6,738.7z"/>
			<path class="st3" d="M489.4,754.5c0,6.6-4.6,11-11.1,11s-11.1-4.4-11.1-11c0-6.5,4.6-10.9,11.1-10.9S489.4,747.9,489.4,754.5z
				 M486.4,754.5c0-4.9-3.3-8.1-8.1-8.1c-4.7,0-8.1,3.2-8.1,8.1c0,4.9,3.3,8.2,8.1,8.2S486.4,759.4,486.4,754.5z"/>
			<path class="st3" d="M498.8,764.7h-3v-31.2h3V764.7z"/>
			<path class="st3" d="M526,764.3c-3,0.7-7.5,1.1-11.1,1.1c-5.1,0-8.3-2.6-8.3-8.3v-12.7h3v12.1c0,4.1,2.1,6.3,5.9,6.3
				c2.2,0,4.8-0.2,7.6-0.6v-17.8h3v19.9H526z"/>
			<path class="st3" d="M547.1,764.8c-1.6,0.4-2.8,0.6-4.5,0.6c-4.7,0-6.9-2.4-6.9-7.7v-10.5H531v-2.7h4.7V736h3v8.5h7.3v2.7h-7.4
				v10.3c0,3.7,1.2,5.3,4.4,5.3c1.1,0,2.3-0.1,3.7-0.4L547.1,764.8z"/>
			<path class="st3" d="M551.9,737c0-1.3,1-2.2,2.2-2.2s2.2,0.9,2.2,2.2c0,1.2-1,2.2-2.2,2.2S551.9,738.3,551.9,737z M555.6,764.7
				h-3v-20.3h3V764.7z"/>
			<path class="st3" d="M584,754.5c0,6.6-4.6,11-11.1,11s-11.1-4.4-11.1-11c0-6.5,4.6-10.9,11.1-10.9S584,747.9,584,754.5z
				 M580.9,754.5c0-4.9-3.3-8.1-8.1-8.1c-4.7,0-8.1,3.2-8.1,8.1c0,4.9,3.3,8.2,8.1,8.2S580.9,759.4,580.9,754.5z"/>
			<path class="st3" d="M609.4,752v12.7h-3v-12c0-3.9-2.2-6.2-5.9-6.2c-2.2,0-4.8,0.1-7.6,0.6v17.6h-3v-19.9c3-0.7,7.5-1.1,11.1-1.1
				C606.3,743.7,609.4,746.8,609.4,752z"/>
		</g>
	</g>
</g>
<g>
	<circle class="st4" cx="401" cy="316" r="270"/>
	<circle class="st5" cx="401" cy="316" r="247.7"/>
</g>
<g>
	<rect x="284.6" y="165.5" class="st6" width="104.7" height="104.7"/>
	<polyline class="st7" points="284.6,165.5 389.4,165.5 389.4,270.2 	"/>
	<rect x="394.4" y="195.4" class="st6" width="59.9" height="59.9"/>
	<polyline class="st7" points="394.4,195.4 454.2,195.4 454.2,255.2 	"/>
	
		<rect x="388" y="121.7" transform="matrix(0.7071 -0.7071 0.7071 0.7071 15.3927 339.4449)" class="st6" width="58.9" height="58.9"/>
	<polyline class="st7" points="417.3,109.6 459.2,151 417.3,192.9 	"/>
	<path class="st8" d="M494.1,229.3c0,6-3,11-7.5,11l0,0c-4.5,0-7.5-5-7.5-11v-31.4c0-6,3-11,7.5-11l0,0c4.5,0,7.5,5,7.5,11V229.3z"
		/>
	<polygon class="st9" points="475.7,350 313.6,350 251.7,230.3 511.6,230.3 	"/>
	<polygon class="st10" points="475.7,350 417.8,268.7 251.7,230.3 511.6,230.3 	"/>
	<path class="st11" d="M557,187.9c0,9-7.5,17.5-16.5,17.5h-46.4c-9,0-16.5-8.5-16.5-17.5l0,0c0-9,7.5-17.5,16.5-17.5h46.4
		C549.5,170.5,557,178.9,557,187.9L557,187.9z"/>
	<path class="st12" d="M557,188.9L557,188.9c0,9-7.5,16.5-16.5,16.5h-46.4c-9,0-16.5-7.5-16.5-16.5l0,0"/>
	<path class="st10" d="M489.1,345c0,3-2,5-5,5H314.6c-3,0-5-2-5-5l0,0c0-3,2-5,5-5h169.6C487.1,340,489.1,342,489.1,345L489.1,345z"
		/>
	<circle class="st13" cx="314.6" cy="353.5" r="37.4"/>
	<path class="st14" d="M341,327.6c14.5,14.5,14.5,38.4,0,52.9s-38.4,14.5-52.9-0.5"/>
	<circle class="st6" cx="314.6" cy="353.5" r="17.5"/>
	<path class="st15" d="M314.6,336c9.5,0,17.5,8,17.5,17.5s-8,17.5-17.5,17.5"/>
	<circle class="st2" cx="314.6" cy="353.5" r="10.5"/>
	<path class="st16" d="M322.1,346c4,4,4,11,0,15s-11,4-15,0"/>
	<circle class="st13" cx="461.2" cy="353.5" r="37.4"/>
	<path class="st14" d="M487.6,327.6c14.5,14.5,14.5,38.4,0,52.9s-38.4,14.5-52.9-0.5"/>
	<circle class="st6" cx="461.2" cy="353.5" r="17.5"/>
	<path class="st15" d="M461.2,336c9.5,0,17.5,8,17.5,17.5s-8,17.5-17.5,17.5"/>
	<circle class="st2" cx="461.2" cy="353.5" r="10.5"/>
	<g>
		<path class="st16" d="M468.7,346c4,4,4,11,0,15s-11,4-15,0"/>
		<g class="st17">
			<path class="st16" d="M305.1,252.8c0,3.5-2.5,6-6,6l0,0c-3.5,0-6-2.5-6-6l0,0c0-3.5,2.5-6,6-6l0,0
				C302.6,246.8,305.1,249.3,305.1,252.8L305.1,252.8z"/>
			<path class="st16" d="M333.5,252.8c0,3.5-2.5,6-6,6l0,0c-3.5,0-6-2.5-6-6l0,0c0-3.5,2.5-6,6-6l0,0
				C331,246.8,333.5,249.3,333.5,252.8L333.5,252.8z"/>
			<path class="st16" d="M362,252.8c0,3.5-2.5,6-6,6l0,0c-3.5,0-6-2.5-6-6l0,0c0-3.5,2.5-6,6-6l0,0C359.5,246.8,362,249.3,362,252.8
				L362,252.8z"/>
			<path class="st16" d="M390.9,252.8c0,3.5-2.5,6-6,6l0,0c-3.5,0-6-2.5-6-6l0,0c0-3.5,2.5-6,6-6l0,0
				C387.9,246.8,390.9,249.3,390.9,252.8L390.9,252.8z"/>
			<path class="st16" d="M419.3,252.8c0,3.5-2.5,6-6,6l0,0c-3.5,0-6-2.5-6-6l0,0c0-3.5,2.5-6,6-6l0,0
				C416.3,246.8,419.3,249.3,419.3,252.8L419.3,252.8z"/>
			<path class="st16" d="M447.7,252.8c0,3.5-2.5,6-6,6l0,0c-3.5,0-6-2.5-6-6l0,0c0-3.5,2.5-6,6-6l0,0
				C444.8,246.8,447.7,249.3,447.7,252.8L447.7,252.8z"/>
			<path class="st16" d="M476.2,252.8c0,3.5-2.5,6-6,6l0,0c-3.5,0-6-2.5-6-6l0,0c0-3.5,2.5-6,6-6l0,0
				C473.2,246.8,476.2,249.3,476.2,252.8L476.2,252.8z"/>
			<path class="st16" d="M305.1,277.7c0,3.5-2.5,6-6,6l0,0c-3.5,0-6-2.5-6-6l0,0c0-3.5,2.5-6,6-6l0,0
				C302.6,271.2,305.1,274.2,305.1,277.7L305.1,277.7z"/>
			<path class="st16" d="M333.5,277.7c0,3.5-2.5,6-6,6l0,0c-3.5,0-6-2.5-6-6l0,0c0-3.5,2.5-6,6-6l0,0
				C331,271.2,333.5,274.2,333.5,277.7L333.5,277.7z"/>
			<path class="st16" d="M362,277.7c0,3.5-2.5,6-6,6l0,0c-3.5,0-6-2.5-6-6l0,0c0-3.5,2.5-6,6-6l0,0C359.5,271.2,362,274.2,362,277.7
				L362,277.7z"/>
			<path class="st16" d="M390.9,277.7c0,3.5-2.5,6-6,6l0,0c-3.5,0-6-2.5-6-6l0,0c0-3.5,2.5-6,6-6l0,0
				C387.9,271.2,390.9,274.2,390.9,277.7L390.9,277.7z"/>
			<path class="st16" d="M419.3,277.7c0,3.5-2.5,6-6,6l0,0c-3.5,0-6-2.5-6-6l0,0c0-3.5,2.5-6,6-6l0,0
				C416.3,271.2,419.3,274.2,419.3,277.7L419.3,277.7z"/>
			<path class="st16" d="M447.7,277.7c0,3.5-2.5,6-6,6l0,0c-3.5,0-6-2.5-6-6l0,0c0-3.5,2.5-6,6-6l0,0
				C444.8,271.2,447.7,274.2,447.7,277.7L447.7,277.7z"/>
			<path class="st16" d="M476.2,277.7c0,3.5-2.5,6-6,6l0,0c-3.5,0-6-2.5-6-6l0,0c0-3.5,2.5-6,6-6l0,0
				C473.2,271.2,476.2,274.2,476.2,277.7L476.2,277.7z"/>
			<path class="st16" d="M333.5,302.1c0,3.5-2.5,6-6,6l0,0c-3.5,0-6-2.5-6-6l0,0c0-3.5,2.5-6,6-6l0,0
				C331,296.1,333.5,299.1,333.5,302.1L333.5,302.1z"/>
			<path class="st16" d="M362,302.1c0,3.5-2.5,6-6,6l0,0c-3.5,0-6-2.5-6-6l0,0c0-3.5,2.5-6,6-6l0,0C359.5,296.1,362,299.1,362,302.1
				L362,302.1z"/>
			<path class="st16" d="M390.9,302.1c0,3.5-2.5,6-6,6l0,0c-3.5,0-6-2.5-6-6l0,0c0-3.5,2.5-6,6-6l0,0
				C387.9,296.1,390.9,299.1,390.9,302.1L390.9,302.1z"/>
			<path class="st16" d="M419.3,302.1c0,3.5-2.5,6-6,6l0,0c-3.5,0-6-2.5-6-6l0,0c0-3.5,2.5-6,6-6l0,0
				C416.3,296.1,419.3,299.1,419.3,302.1L419.3,302.1z"/>
			<path class="st16" d="M447.7,302.1c0,3.5-2.5,6-6,6l0,0c-3.5,0-6-2.5-6-6l0,0c0-3.5,2.5-6,6-6l0,0
				C444.8,296.1,447.7,299.1,447.7,302.1L447.7,302.1z"/>
			<path class="st16" d="M476.2,302.1c0,3.5-2.5,6-6,6l0,0c-3.5,0-6-2.5-6-6l0,0c0-3.5,2.5-6,6-6l0,0
				C473.2,296.1,476.2,299.1,476.2,302.1L476.2,302.1z"/>
			<path class="st16" d="M362,327.1c0,3.5-2.5,6-6,6l0,0c-3.5,0-6-2.5-6-6l0,0c0-3.5,2.5-6,6-6l0,0C359.5,321.1,362,323.6,362,327.1
				L362,327.1z"/>
			<path class="st16" d="M390.9,327.1c0,3.5-2.5,6-6,6l0,0c-3.5,0-6-2.5-6-6l0,0c0-3.5,2.5-6,6-6l0,0
				C387.9,321.1,390.9,323.6,390.9,327.1L390.9,327.1z"/>
			<path class="st16" d="M419.3,327.1c0,3.5-2.5,6-6,6l0,0c-3.5,0-6-2.5-6-6l0,0c0-3.5,2.5-6,6-6l0,0
				C416.3,321.1,419.3,323.6,419.3,327.1L419.3,327.1z"/>
		</g>
	</g>
</g>
<path class="st18" d="M504.5,491.4H293.3c-15.6,0-28.3-12.8-28.3-28.3v-19.2c0-15.6,12.8-28.3,28.3-28.3h211.2
	c15.6,0,28.3,12.8,28.3,28.3V463C532.8,478.6,520.1,491.4,504.5,491.4z"/>
<g class="st19">
	<path class="st2" d="M311.3,460.8l-1.6-3.7h-7.1l-1.6,3.7h-4l7.4-17h3.7l7.4,17H311.3z M306.2,448.8l-2.1,4.9h4.3L306.2,448.8z"/>
	<path class="st2" d="M333.3,446c1.6,1.5,2.4,3.5,2.4,6.2s-0.8,4.7-2.4,6.3c-1.6,1.5-4,2.3-7.2,2.3h-5.8v-17h6
		C329.4,443.7,331.7,444.5,333.3,446z M330.5,456.1c0.9-0.9,1.4-2.2,1.4-3.8s-0.5-3-1.4-3.9c-0.9-0.9-2.4-1.4-4.3-1.4h-2.1v10.3h2.4
		C328.3,457.4,329.6,457,330.5,456.1z"/>
	<path class="st2" d="M355,446c1.6,1.5,2.4,3.5,2.4,6.2s-0.8,4.7-2.4,6.3c-1.6,1.5-4,2.3-7.2,2.3H342v-17h6
		C351.1,443.7,353.4,444.5,355,446z M352.3,456.1c0.9-0.9,1.4-2.2,1.4-3.8s-0.5-3-1.4-3.9c-0.9-0.9-2.4-1.4-4.3-1.4h-2.1v10.3h2.4
		C350,457.4,351.3,457,352.3,456.1z"/>
	<path class="st2" d="M380.4,447v13.7h-3.8V447h-4.8v-3.3h13.4v3.3H380.4z"/>
	<path class="st2" d="M404.8,458.4c-1.7,1.7-3.8,2.5-6.4,2.5c-2.5,0-4.6-0.8-6.4-2.5c-1.7-1.7-2.6-3.8-2.6-6.3
		c0-2.5,0.9-4.6,2.6-6.3c1.7-1.7,3.8-2.5,6.4-2.5c2.5,0,4.6,0.8,6.4,2.5c1.7,1.7,2.6,3.8,2.6,6.3
		C407.4,454.6,406.5,456.7,404.8,458.4z M403.5,452.2c0-1.5-0.5-2.8-1.5-3.9c-1-1.1-2.2-1.6-3.6-1.6c-1.4,0-2.6,0.5-3.6,1.6
		c-1,1.1-1.5,2.4-1.5,3.9c0,1.5,0.5,2.8,1.5,3.9c1,1.1,2.2,1.6,3.6,1.6c1.4,0,2.6-0.5,3.6-1.6C403,455,403.5,453.7,403.5,452.2z"/>
	<path class="st2" d="M430.8,457.4c1.9,0,3.4-0.7,4.6-2.2l2.4,2.5c-1.9,2.2-4.2,3.3-6.8,3.3c-2.6,0-4.8-0.8-6.5-2.5
		c-1.7-1.7-2.5-3.7-2.5-6.3c0-2.5,0.9-4.6,2.6-6.3c1.7-1.7,3.8-2.5,6.3-2.5c2.8,0,5.1,1.1,7,3.2l-2.4,2.7c-1.2-1.5-2.7-2.2-4.5-2.2
		c-1.4,0-2.6,0.5-3.7,1.4c-1,0.9-1.5,2.2-1.5,3.8c0,1.6,0.5,2.9,1.4,3.8C428.3,456.9,429.5,457.4,430.8,457.4z"/>
	<path class="st2" d="M455.8,460.8l-1.6-3.7h-7.1l-1.6,3.7h-4l7.4-17h3.7l7.4,17H455.8z M450.7,448.8l-2.1,4.9h4.3L450.7,448.8z"/>
	<path class="st2" d="M478.6,449.4c0,2.7-1.1,4.5-3.2,5.3l4.3,6.1H475l-3.8-5.4h-2.6v5.4h-3.8v-17h6.5c2.6,0,4.5,0.4,5.7,1.3
		C478.1,446,478.6,447.4,478.6,449.4z M474.1,451.4c0.5-0.4,0.7-1.1,0.7-2c0-0.9-0.2-1.5-0.7-1.9c-0.5-0.3-1.3-0.5-2.6-0.5h-2.8v5
		h2.8C472.7,452,473.6,451.8,474.1,451.4z"/>
	<path class="st2" d="M492.4,447v13.7h-3.8V447h-4.8v-3.3h13.4v3.3H492.4z"/>
</g>
</svg>
